<svg xmlns="http://www.w3.org/2000/svg" viewBox="0 0 500 500"><g id="freepik--Floor--inject-2"><ellipse id="freepik--floor--inject-2" cx="252.71" cy="358.95" rx="239.65" ry="129.39" style="fill:#f5f5f5"></ellipse></g><g id="freepik--Shadows--inject-2"><path id="freepik--Shadow--inject-2" d="M367.72,295.83,128,434.26a8.69,8.69,0,0,1-7.88,0L54,396.12c-2.18-1.26-2.18-3.29,0-4.55L293.78,253.14a8.75,8.75,0,0,1,7.88,0l66.06,38.14C369.9,292.54,369.9,294.58,367.72,295.83Z" style="fill:#e0e0e0"></path><ellipse id="freepik--shadow--inject-2" cx="309.23" cy="353.53" rx="50.36" ry="29.08" style="fill:#e0e0e0"></ellipse><ellipse id="freepik--shadow--inject-2" cx="338.21" cy="308.01" rx="38.6" ry="22.28" style="fill:#e0e0e0"></ellipse><ellipse id="freepik--shadow--inject-2" cx="164.62" cy="406.2" rx="38.6" ry="22.28" style="fill:#e0e0e0"></ellipse><ellipse id="freepik--shadow--inject-2" cx="425.6" cy="349.91" rx="55.86" ry="32.25" style="fill:#e0e0e0"></ellipse></g><g id="freepik--Clouds--inject-2"><g id="freepik--clouds--inject-2"><path d="M136.3,79.27l-6,3.43a7,7,0,0,0,.05-.78V80.2c0-3.07-2.15-4.31-4.8-2.78a9.35,9.35,0,0,0-2.87,2.75c-.43-3.85-3.45-5.28-7.12-3.16a15.88,15.88,0,0,0-7.19,12.45V92a6.8,6.8,0,0,0,.61,3l-4.94,2.85a5.89,5.89,0,0,0-2.67,4.61c0,1.7,1.2,2.39,2.67,1.54L136.3,85.43A5.9,5.9,0,0,0,139,80.81C139,79.11,137.77,78.42,136.3,79.27Z" style="fill:#ebebeb"></path><path d="M97,63.48l-3.28,1.27V57.52c0-5.72-4.57-7.09-9.53-4.23h0c-5,2.86-9,9.82-9,15.55v1a4.8,4.8,0,0,0-4.17.64h0A14.27,14.27,0,0,0,64.6,81.72v.48L60,84.84a9.39,9.39,0,0,0-4.26,7.37c0,2.71,1.91,3.81,4.26,2.45L97,73.31a9.41,9.41,0,0,0,4.25-7.37C101.26,63.23,99.36,62.13,97,63.48Z" style="fill:#ebebeb"></path></g></g><g id="freepik--Plants--inject-2"><g id="freepik--plants--inject-2"><path d="M68.74,399.79l6.79-3.67s.24-24.24-3.25-38.85c-4.9-20.53-23.53-43.45-38.75-35.37s14.94,29,22.56,45.9S68.74,399.79,68.74,399.79Z" style="fill:#6B3598"></path><path d="M68.74,399.79l6.79-3.67s.24-24.24-3.25-38.85c-4.9-20.53-23.53-43.45-38.75-35.37s14.94,29,22.56,45.9S68.74,399.79,68.74,399.79Z" style="opacity:0.30000000000000004"></path><path d="M72.26,398.68h0a.54.54,0,0,1-.6-.49c-4-47.82-29.27-67-29.53-67.15a.56.56,0,0,1-.11-.77.54.54,0,0,1,.76-.11c.27.2,26.17,20.11,30,67.92A.54.54,0,0,1,72.26,398.68Z" style="fill:#fff"></path><path d="M62,403.52l6.8-3.72a94,94,0,0,0-9.94-28.44c-8.08-15.17-24.62-22.61-31.3-19.27-8.14,4.08-5.09,11.79-1.24,16.74C30.88,374.67,53.92,381.57,62,403.52Z" style="fill:#6B3598"></path><path d="M62,403.52l6.8-3.72a94,94,0,0,0-9.94-28.44c-8.08-15.17-24.62-22.61-31.3-19.27-8.14,4.08-5.09,11.79-1.24,16.74C30.88,374.67,53.92,381.57,62,403.52Z" style="opacity:0.1"></path><path d="M65.19,401.67h0a.54.54,0,0,1-.61-.47C60.69,372,31,358.24,30.73,358.08a.55.55,0,1,1,.5-1c.31.16,30.47,14.14,34.43,43.95A.54.54,0,0,1,65.19,401.67Z" style="fill:#fff"></path></g></g><g id="freepik--Bench--inject-2"><g id="freepik--bench--inject-2"><path d="M120.52,361.12a4.61,4.61,0,0,1-2.32-.63L68.08,331.55a17.81,17.81,0,0,1-8.88-15.38V258.29a4.65,4.65,0,1,1,9.3,0v57.88a8.5,8.5,0,0,0,4.23,7.33l50.12,28.94a4.65,4.65,0,0,1-2.33,8.68Z" style="fill:#455a64"></path><path d="M340.45,234.29a4.55,4.55,0,0,1-2.32-.63L288,204.73a17.83,17.83,0,0,1-8.88-15.39V131.46a4.65,4.65,0,0,1,9.3,0v57.88a8.5,8.5,0,0,0,4.23,7.33l50.12,28.94a4.65,4.65,0,0,1-2.33,8.68Z" style="fill:#455a64"></path><path d="M129.2,355.35v66.24a2.62,2.62,0,0,1-1.55,2.15,8.26,8.26,0,0,1-7.47,0,2.62,2.62,0,0,1-1.55-2.15V355.35Z" style="fill:#455a64"></path><path d="M85,330.17V396.4a2.64,2.64,0,0,1-1.55,2.16,8.26,8.26,0,0,1-7.47,0,2.64,2.64,0,0,1-1.55-2.16V330.17Z" style="fill:#455a64"></path><path d="M349,228.47V294.7a2.63,2.63,0,0,1-1.54,2.16,8.28,8.28,0,0,1-7.48,0,2.63,2.63,0,0,1-1.54-2.16V228.47Z" style="fill:#455a64"></path><path d="M304.74,203.28v66.24a2.6,2.6,0,0,1-1.54,2.15,8.28,8.28,0,0,1-7.48,0,2.6,2.6,0,0,1-1.54-2.15V203.28Z" style="fill:#455a64"></path><g id="freepik--Chair--inject-2"><path d="M48.84,271.42l-.93-.53a6,6,0,0,1-2.69-4.66v-8.34a6,6,0,0,1,2.69-4.65L287.63,114.83a6,6,0,0,1,5.37,0l.93.54a5.93,5.93,0,0,1,2.68,4.65v8.34a5.93,5.93,0,0,1-2.68,4.65L54.21,271.42A5.91,5.91,0,0,1,48.84,271.42Z" style="fill:#6B3598"></path><path d="M293.93,118.47,54.21,256.88a5.9,5.9,0,0,0-2.69,4.65v8.34c0,1.71,1.2,2.41,2.69,1.55L293.93,133a5.93,5.93,0,0,0,2.68-4.65V120C296.61,118.31,295.41,117.61,293.93,118.47Z" style="fill:#fff;opacity:0.7000000000000001"></path><path d="M293.93,115.37l-.93-.54a6,6,0,0,0-5.37,0L47.91,253.24a5.55,5.55,0,0,0-1.9,2l6.3,3.63a5.81,5.81,0,0,1,1.9-2L293.93,118.47c1.48-.86,2.68-.16,2.68,1.55A5.93,5.93,0,0,0,293.93,115.37Z" style="fill:#fff;opacity:0.85"></path><path d="M51.52,261.53a5.48,5.48,0,0,1,.79-2.65L46,255.25a6.27,6.27,0,0,0-.49,1.09,4.82,4.82,0,0,0-.29,1.56v8.34a6,6,0,0,0,2.68,4.65l.36.21.57.32a3.11,3.11,0,0,0,.41.2l.11.05.38.13.24.07.37.08.28.05.37,0h.69l.24,0,.45,0h.1a4.94,4.94,0,0,0,1.1-.29,2.87,2.87,0,0,1-.38.08h0a1.23,1.23,0,0,1-.43,0l-.12,0-.26-.1-.11-.07a1.24,1.24,0,0,1-.22-.18l-.07-.09a2,2,0,0,1-.19-.28l0-.08a2,2,0,0,1-.14-.45v0a3.51,3.51,0,0,1,0-.59Z" style="fill:#fff;opacity:0.6000000000000001"></path><path d="M48.84,296.93l-.93-.54a5.94,5.94,0,0,1-2.69-4.65V283.4a5.94,5.94,0,0,1,2.69-4.65L287.63,140.34a5.91,5.91,0,0,1,5.37,0l.93.53a6,6,0,0,1,2.68,4.66v8.34a6,6,0,0,1-2.68,4.65L54.21,296.93A6,6,0,0,1,48.84,296.93Z" style="fill:#6B3598"></path><path d="M293.93,144,54.21,282.39A5.91,5.91,0,0,0,51.52,287v8.34c0,1.71,1.2,2.41,2.69,1.55L293.93,158.52a5.93,5.93,0,0,0,2.68-4.65v-8.34C296.61,143.82,295.41,143.12,293.93,144Z" style="fill:#fff;opacity:0.7000000000000001"></path><path d="M293.93,140.88l-.93-.54a6,6,0,0,0-5.37,0L47.91,278.75a5.55,5.55,0,0,0-1.9,2l6.3,3.64a5.8,5.8,0,0,1,1.9-2L293.93,144c1.48-.86,2.68-.16,2.68,1.55A5.93,5.93,0,0,0,293.93,140.88Z" style="fill:#fff;opacity:0.85"></path><path d="M51.52,287a5.45,5.45,0,0,1,.79-2.65L46,280.75a6.62,6.62,0,0,0-.49,1.09,4.92,4.92,0,0,0-.29,1.56v8.35a5.49,5.49,0,0,0,.82,2.7,5.38,5.38,0,0,0,1.86,1.95l.36.21.57.32.41.2.11.05.38.13.24.07.37.08.28.05.37,0h.93l.45,0,.1,0a5.54,5.54,0,0,0,1.1-.28,1.8,1.8,0,0,1-.38.07h0a1.54,1.54,0,0,1-.43,0l-.12,0-.26-.1-.11-.07a1.24,1.24,0,0,1-.22-.18L52,296.8a1.62,1.62,0,0,1-.19-.29l0-.08a1.89,1.89,0,0,1-.14-.44v0a3.51,3.51,0,0,1,0-.59Z" style="fill:#fff;opacity:0.6000000000000001"></path><path d="M48.84,322.44l-.93-.54a6,6,0,0,1-2.69-4.65v-8.34a5.93,5.93,0,0,1,2.69-4.65L287.63,165.85a5.91,5.91,0,0,1,5.37,0l.93.53a6,6,0,0,1,2.68,4.65v8.35a6,6,0,0,1-2.68,4.65L54.21,322.44A6,6,0,0,1,48.84,322.44Z" style="fill:#6B3598"></path><path d="M293.93,169.48,54.21,307.89a5.91,5.91,0,0,0-2.69,4.65v8.34c0,1.72,1.2,2.41,2.69,1.55L293.93,184a6,6,0,0,0,2.68-4.66V171C296.61,169.32,295.41,168.62,293.93,169.48Z" style="fill:#fff;opacity:0.7000000000000001"></path><path d="M293.93,166.38l-.93-.54a6,6,0,0,0-5.37,0L47.91,304.25a5.5,5.5,0,0,0-1.9,2l6.3,3.63a5.89,5.89,0,0,1,1.9-2L293.93,169.48c1.48-.86,2.68-.16,2.68,1.55A6,6,0,0,0,293.93,166.38Z" style="fill:#fff;opacity:0.85"></path><path d="M51.52,312.54a5.45,5.45,0,0,1,.79-2.65L46,306.26a6.17,6.17,0,0,0-.49,1.08,4.93,4.93,0,0,0-.29,1.57v8.34a5.46,5.46,0,0,0,.82,2.7,5.38,5.38,0,0,0,1.86,1.95l.36.21.57.32.41.2.11.05.38.13.24.07.37.08.28.05.37,0h.69l.24,0,.45,0h.1a5.55,5.55,0,0,0,1.1-.29,1.8,1.8,0,0,1-.38.07h0a1.23,1.23,0,0,1-.43,0l-.12,0-.26-.1-.11-.07a1.24,1.24,0,0,1-.22-.18L52,322.3a2,2,0,0,1-.19-.28l0-.09a1.89,1.89,0,0,1-.14-.44v0a3.51,3.51,0,0,1,0-.59Z" style="fill:#fff;opacity:0.6000000000000001"></path><path d="M101.9,363.33v1.07a5.94,5.94,0,0,0,2.69,4.65l7.23,4.18a6,6,0,0,0,5.37,0L356.91,234.82a6,6,0,0,0,2.68-4.65V229.1a6,6,0,0,0-2.68-4.66l-7.23-4.17a6,6,0,0,0-5.37,0L104.59,358.68A6,6,0,0,0,101.9,363.33Z" style="fill:#6B3598"></path><path d="M117.19,366,356.91,227.54c1.48-.85,1.48-2.24,0-3.1l-7.23-4.17a6,6,0,0,0-5.37,0L104.59,358.68c-1.48.86-1.48,2.24,0,3.1l7.23,4.17A5.91,5.91,0,0,0,117.19,366Z" style="fill:#fff;opacity:0.85"></path><path d="M357.18,224.61c1.2.87,1.11,2.14-.27,2.94L117.19,366a5.52,5.52,0,0,1-2.69.65v7.27a5.52,5.52,0,0,0,2.69-.65l239.72-138.4a6,6,0,0,0,2.69-4.65v-1.08A6,6,0,0,0,357.18,224.61Z" style="fill:#fff;opacity:0.7000000000000001"></path><path d="M111.81,366l-7.22-4.17c-1.3-.76-1.46-1.91-.49-2.76a6,6,0,0,0-2.2,4.32v1.06a6,6,0,0,0,1.64,3.81,4.62,4.62,0,0,0,1,.84l7.22,4.17a5.52,5.52,0,0,0,2.69.65V366.6A5.52,5.52,0,0,1,111.81,366Z" style="fill:#fff;opacity:0.6000000000000001"></path><path d="M79.86,350.61v1.07a5.93,5.93,0,0,0,2.69,4.65l7.22,4.17a5.91,5.91,0,0,0,5.37,0L334.86,222.09a5.93,5.93,0,0,0,2.69-4.65v-1.07a5.91,5.91,0,0,0-2.69-4.65l-7.22-4.17a5.91,5.91,0,0,0-5.37,0L82.55,346A5.93,5.93,0,0,0,79.86,350.61Z" style="fill:#6B3598"></path><path d="M95.14,353.23,334.86,214.82c1.49-.86,1.49-2.25,0-3.1l-7.22-4.17a5.91,5.91,0,0,0-5.37,0L82.55,346c-1.49.86-1.49,2.25,0,3.11l7.22,4.17A6,6,0,0,0,95.14,353.23Z" style="fill:#fff;opacity:0.85"></path><path d="M335.14,211.89c1.19.86,1.1,2.13-.27,2.93L95.14,353.23a5.45,5.45,0,0,1-2.68.64v7.27a5.45,5.45,0,0,0,2.68-.64L334.87,222.09a5.93,5.93,0,0,0,2.68-4.65v-1.07A6,6,0,0,0,335.14,211.89Z" style="fill:#fff;opacity:0.7000000000000001"></path><path d="M89.77,353.23l-7.23-4.18c-1.29-.76-1.45-1.91-.48-2.75a6,6,0,0,0-2.2,4.31v1.06a6.07,6.07,0,0,0,1.63,3.82,5,5,0,0,0,1.05.83l7.23,4.18a5.49,5.49,0,0,0,2.69.64v-7.27A5.49,5.49,0,0,1,89.77,353.23Z" style="fill:#fff;opacity:0.6000000000000001"></path><path d="M57.82,337.88V339a5.93,5.93,0,0,0,2.68,4.65l7.23,4.17a5.91,5.91,0,0,0,5.37,0L312.82,209.36a5.93,5.93,0,0,0,2.69-4.65v-1.07a6,6,0,0,0-2.69-4.65l-7.22-4.17a5.91,5.91,0,0,0-5.37,0L60.5,333.23A5.93,5.93,0,0,0,57.82,337.88Z" style="fill:#6B3598"></path><path d="M60.5,336.33l7.23,4.17a5.91,5.91,0,0,0,5.37,0L312.82,202.09c1.48-.85,1.48-2.24,0-3.1l-7.22-4.17a5.93,5.93,0,0,0-5.38,0L60.5,333.23C59,334.08,59,335.47,60.5,336.33Z" style="fill:#fff;opacity:0.85"></path><path d="M313.09,199.16c1.2.87,1.11,2.13-.27,2.94L73.1,340.5a5.52,5.52,0,0,1-2.69.65v7.27a5.52,5.52,0,0,0,2.69-.65l239.72-138.4a6,6,0,0,0,2.69-4.66v-1.07A6,6,0,0,0,313.09,199.16Z" style="fill:#fff;opacity:0.7000000000000001"></path><path d="M67.73,340.5l-7.23-4.17c-1.3-.76-1.46-1.91-.48-2.76a6,6,0,0,0-2.21,4.31v1.06a6,6,0,0,0,1.64,3.82,5.1,5.1,0,0,0,1,.84l7.23,4.17a5.45,5.45,0,0,0,2.68.65v-7.27A5.45,5.45,0,0,1,67.73,340.5Z" style="fill:#fff;opacity:0.6000000000000001"></path><path d="M78.19,328.2a.92.92,0,0,0,0,1.75,3.31,3.31,0,0,0,3,0,.92.92,0,0,0,0-1.75A3.33,3.33,0,0,0,78.19,328.2Z" style="fill:#fff"></path><path d="M100.29,341a.92.92,0,0,0,0,1.75,3.33,3.33,0,0,0,3,0,.92.92,0,0,0,0-1.75A3.33,3.33,0,0,0,100.29,341Z" style="fill:#fff"></path><path d="M122.4,353.86a.92.92,0,0,0,0,1.75,3.31,3.31,0,0,0,3,0,.92.92,0,0,0,0-1.75A3.39,3.39,0,0,0,122.4,353.86Z" style="fill:#fff"></path><path d="M297.94,201.38a.93.93,0,0,0,0,1.76,3.39,3.39,0,0,0,3,0,.93.93,0,0,0,0-1.76A3.39,3.39,0,0,0,297.94,201.38Z" style="fill:#fff"></path><path d="M320.05,214.21a.93.93,0,0,0,0,1.76,3.39,3.39,0,0,0,3,0,.93.93,0,0,0,0-1.76A3.37,3.37,0,0,0,320.05,214.21Z" style="fill:#fff"></path><path d="M342.15,227a.93.93,0,0,0,0,1.76,3.39,3.39,0,0,0,3,0,.93.93,0,0,0,0-1.76A3.39,3.39,0,0,0,342.15,227Z" style="fill:#fff"></path><path d="M191,264.28a.92.92,0,0,0,0,1.75,3.39,3.39,0,0,0,3,0,.92.92,0,0,0,0-1.75A3.31,3.31,0,0,0,191,264.28Z" style="fill:#fff"></path><path d="M213.11,277.11a.92.92,0,0,0,0,1.75,3.33,3.33,0,0,0,3,0,.92.92,0,0,0,0-1.75A3.33,3.33,0,0,0,213.11,277.11Z" style="fill:#fff"></path><path d="M235.22,289.94a.92.92,0,0,0,0,1.75,3.33,3.33,0,0,0,3,0,.92.92,0,0,0,0-1.75A3.31,3.31,0,0,0,235.22,289.94Z" style="fill:#fff"></path><path d="M63.85,256.29a3.81,3.81,0,0,0-1.73,3c0,1.1.77,1.55,1.73,1a3.83,3.83,0,0,0,1.73-3C65.58,256.19,64.8,255.74,63.85,256.29Z" style="fill:#fff"></path><path d="M63.85,281.75a3.8,3.8,0,0,0-1.73,3c0,1.1.77,1.55,1.73,1a3.83,3.83,0,0,0,1.73-3C65.58,281.64,64.8,281.19,63.85,281.75Z" style="fill:#fff"></path><path d="M63.85,307.2a3.8,3.8,0,0,0-1.73,3c0,1.11.77,1.55,1.73,1a3.83,3.83,0,0,0,1.73-3C65.58,307.09,64.8,306.65,63.85,307.2Z" style="fill:#fff"></path><path d="M283.78,129.53a3.8,3.8,0,0,0-1.73,3c0,1.1.77,1.55,1.73,1a3.83,3.83,0,0,0,1.73-3C285.51,129.42,284.73,129,283.78,129.53Z" style="fill:#fff"></path><path d="M283.78,155a3.8,3.8,0,0,0-1.73,3c0,1.11.77,1.55,1.73,1a3.83,3.83,0,0,0,1.73-3C285.51,154.88,284.73,154.43,283.78,155Z" style="fill:#fff"></path><path d="M283.78,180.43a3.84,3.84,0,0,0-1.73,3c0,1.1.77,1.55,1.73,1a3.85,3.85,0,0,0,1.73-3C285.51,180.33,284.73,179.88,283.78,180.43Z" style="fill:#fff"></path><path d="M176.84,192.42a3.83,3.83,0,0,0-1.73,3c0,1.11.78,1.55,1.73,1a3.8,3.8,0,0,0,1.73-3C178.57,192.32,177.8,191.87,176.84,192.42Z" style="fill:#fff"></path><path d="M176.84,217.87a3.86,3.86,0,0,0-1.73,3c0,1.1.78,1.55,1.73,1a3.81,3.81,0,0,0,1.73-3C178.57,217.77,177.8,217.32,176.84,217.87Z" style="fill:#fff"></path><path d="M176.84,243.33a3.83,3.83,0,0,0-1.73,3c0,1.1.78,1.55,1.73,1a3.8,3.8,0,0,0,1.73-3C178.57,243.22,177.8,242.78,176.84,243.33Z" style="fill:#fff"></path></g></g></g><g id="freepik--character-1--inject-2"><g id="freepik--Character--inject-2"><g id="freepik--Bottom--inject-2"><path d="M149,315.18a156.22,156.22,0,0,1,15.64,7.38c10.05,5.51,13.75,5.34,13.35,20.88-.34,13.57-1.73,31-1.07,38.64-3.69,4-11.22,8.4-12.91,1.28l-.31-.95a10.17,10.17,0,0,0,.52-2.29l-.05-1c.12-6.79-3.18-26.09-3.23-34.26l-29.8-14.41Z" style="fill:#9e6767"></path><path d="M188.81,400.79a2.81,2.81,0,0,1-.8,2.28c-.82.69-3.51,2.64-9.64,1.17-5.89-1.41-8.79-4.94-9.7-6.77s-1.71-3.61-2.66-5.14a10.35,10.35,0,0,0-3.63-3c-.73-.44-1-1.4-.9-2.76C162.17,385,188.81,400.79,188.81,400.79Z" style="fill:#263238"></path><path d="M164,375.64l.07,1.44a3.19,3.19,0,0,0,1,2c1,1,2,1.89,3.07,2.84.09.08.19.17.31.15s.25-.32.22-.53a10.6,10.6,0,0,1-.28-1.85c0-2.17,3.25-2.73,4.93-2.71,1.52,0,3.49.63,3.85,2.33.65,3,3.83,8.9,5.06,10.6a33.92,33.92,0,0,0,3.27,4c1.28,1.35,4.25,3.65,3.43,5.93s-3,3.45-6.07,3.35a18,18,0,0,1-11.22-4.61c-2.39-2.32-4.09-6.25-4.92-7.46-1.5-2.2-4.41-3.17-5.18-4.29a7.86,7.86,0,0,1,.39-5.46,33.59,33.59,0,0,0,1.33-3.63C163.58,376.72,163.28,375.57,164,375.64Z" style="fill:#37474f"></path><path d="M181,392.85a8.35,8.35,0,0,1,4,.53s1.23.94,1.86,1.36c2,1.32,3.08,3,2.26,5.28s-3,3.4-6,3.31c-2.84-.08-7.64-1.07-10.59-4C173.46,396.07,176.7,393.32,181,392.85Z" style="fill:#f0f0f0"></path><path d="M159.93,345.51l-22.19-7.07-14.83-17.23,22.28-8.51s17.79,8.08,24.68,11.95,8.75,5.05,8.6,15.93c-.11,8.49-.6,19.59-.6,19.59a23.65,23.65,0,0,1-16,1.12s-.61-2.76-1.37-8.2C160,350.07,159.93,345.51,159.93,345.51Z" style="fill:#37474f"></path><path d="M162.86,344.42c.49-3.67-4-5-8.3-8s-10.75-7.14-10.75-7.14,2.52-4.74,1.18-8l-11.53,10.82,6.15,7,20.32,6.47s.11,4.56.53,7.58c.76,5.44,1.37,8.2,1.37,8.2.48.13,1,.24,1.43.34C162,354.13,162,350.51,162.86,344.42Z" style="fill:#263238"></path><path d="M128.06,324.34s11.51,5.66,19.3,10.24c7.55,4.44,12,6.2,9.92,19.74s-4.29,30.25-3.93,37.95c-3.84,3.89-11.52,8-12.94.78l-.27-1a10.12,10.12,0,0,0,.6-2.27v-1c.38-6.79-1.39-25.78-1.12-33.95l-30-16Z" style="fill:#9e6767"></path><path d="M139,354.91s-15.66-7.64-26.16-13.12c-12.11-6.33-13.78-15.26-14.42-27.62l46.76-1c1.21,8.08-1,13-5.57,16l10.73,6.78c5.73,4.11,8,5.3,7.56,13.78s-1.78,19.22-1.78,19.22a19.76,19.76,0,0,1-16.94-1.12C138.94,364.76,139,354.91,139,354.91Z" style="fill:#37474f"></path><path d="M164.55,411.43a2.79,2.79,0,0,1-.89,2.25c-.84.65-3.61,2.49-9.67.79-5.83-1.64-8.6-5.28-9.43-7.14s-1.57-3.68-2.46-5.24a10.25,10.25,0,0,0-3.51-3.17,3.67,3.67,0,0,1-.79-2.79C138.54,394.64,164.55,411.43,164.55,411.43Z" style="fill:#263238"></path><path d="M140.78,385.34v1.44a3.17,3.17,0,0,0,.93,2.07c1,1,2,2,3,3a.39.39,0,0,0,.3.17c.22,0,.27-.31.24-.53a11.65,11.65,0,0,1-.21-1.85c.11-2.18,3.35-2.61,5-2.52,1.51.08,3.46.76,3.76,2.47.52,3,3.48,9.05,4.64,10.79a34.19,34.19,0,0,0,3.11,4.11c1.23,1.4,4.11,3.81,3.2,6.05s-3.12,3.33-6.2,3.12a18,18,0,0,1-11-5.05c-2.29-2.41-3.85-6.4-4.62-7.64-1.42-2.25-4.29-3.34-5-4.49a7.78,7.78,0,0,1,.6-5.44,30.51,30.51,0,0,0,1.46-3.58C140.28,386.4,140,385.24,140.78,385.34Z" style="fill:#37474f"></path><path d="M157.05,403.19a8.36,8.36,0,0,1,4,.68s1.2,1,1.81,1.43c2,1.41,3,3.13,2.06,5.37s-3.1,3.29-6.17,3.08c-2.83-.2-7.59-1.37-10.43-4.42C149.4,406.11,152.74,403.5,157.05,403.19Z" style="fill:#f0f0f0"></path></g><g id="freepik--Top--inject-2"><path d="M134.93,262.38c4.71-.64,8.17,2.51,11,7.08s9.86,16,9.86,16L142.89,294Z" style="fill:#fafafa"></path><g id="freepik--Chest--inject-2"><path d="M105.09,264.82c-2.88,2.11-9.09,17.11-6.72,52.9,11,7.23,43.66,3.54,46-8.76a101,101,0,0,1-1.49-13.16c.23-6.41.15-11.2-.1-17.84-.27-7.35-2-14.66-8.72-15.76a82.65,82.65,0,0,0-13.87-.53A50.46,50.46,0,0,0,105.09,264.82Z" style="fill:#6B3598"></path><g style="opacity:0.30000000000000004"><path d="M105.09,264.82c-2.88,2.11-9.09,17.11-6.72,52.9,11,7.23,43.66,3.54,46-8.76a101,101,0,0,1-1.49-13.16c.23-6.41.15-11.2-.1-17.84-.27-7.35-2-14.66-8.72-15.76a82.65,82.65,0,0,0-13.87-.53A50.46,50.46,0,0,0,105.09,264.82Z"></path></g><path d="M113.78,256.49c-1.45-3.82-6-6.74-8.43-12.74-3.27-8.19-2.06-16.22,4-22,3.92-3.74,11.68-6.22,19.07-4.8,3.59.69,9.16,3.3,11.29,6.74a18.52,18.52,0,0,1,2.6,12.88s-7.24,8.31-9.76,9.14c-1.58.52-3.16,1-4.73,1.5a12.41,12.41,0,0,0-2.41.89,8.42,8.42,0,0,0-1.34,1.33L116.38,257C115.8,257.59,114.45,256.48,113.78,256.49Z" style="fill:#37474f"></path><path d="M113.34,244.27a.86.86,0,0,1-.2.18c-1.11.74-1.12-1.22-2.25-2.5a2.93,2.93,0,0,0-2.42-.92,3.74,3.74,0,0,0-3.46,2.22,5.49,5.49,0,0,0,3.39,7.08,4.46,4.46,0,0,0,4.77-1l1.23,14.48s.7,5.23,8.54,6,10.37-2.71,7.12-5.73l0-4.13a18.59,18.59,0,0,0,5.75-.93,11,11,0,0,0,7-8.76c.47-2.82-.43-5.3-.46-8.16,0-1.69.05-4.37,0-5.47-.07-1.35-.77-6.72-2.28-8.52-2.21,3.76-12.61,4.92-20.25,2a11.82,11.82,0,0,1-1.33,5.85c-1,2-2.75,3.07-4.66,4.33a6.71,6.71,0,0,1,0,3.18A2,2,0,0,1,113.34,244.27Z" style="fill:#9e6767"></path><path d="M122.81,237.75l3.5-2.62a2.29,2.29,0,0,1-.46,3.15A2.13,2.13,0,0,1,122.81,237.75Z" style="fill:#263238"></path><path d="M123.69,241.87a1.8,1.8,0,1,0,1.63-2A1.81,1.81,0,0,0,123.69,241.87Z" style="fill:#263238"></path><path d="M128.18,252.5c.09,1,1,.28,2,.2s2.11.36,2-.63a2,2,0,0,0-2.18-1.61A2.07,2.07,0,0,0,128.18,252.5Z" style="fill:#874c4c"></path><path d="M136.24,240.88a1.8,1.8,0,1,0,1.63-1.95A1.79,1.79,0,0,0,136.24,240.88Z" style="fill:#263238"></path><path d="M136.5,234.09l3.92,2a2.12,2.12,0,0,1-2.91,1A2.32,2.32,0,0,1,136.5,234.09Z" style="fill:#263238"></path><polygon points="132.22 240.63 133.11 247.56 137.6 245.91 132.22 240.63" style="fill:#874c4c"></polygon><path d="M130,259.88s-6.22-.43-10.79-3.07a10.71,10.71,0,0,1-4-5s.79,3.45,2.47,5.23C122.1,261.7,130,262,130,262Z" style="fill:#874c4c"></path><path d="M125.87,253.4h0S125.8,253.42,125.87,253.4Z" style="fill:#b16668"></path></g><g id="freepik--soccer-ball--inject-2"><circle cx="156.5" cy="300.16" r="23.1" transform="translate(-105.03 85.24) rotate(-23.05)" style="fill:#f5f5f5"></circle><path d="M160.28,288.83a24.69,24.69,0,0,0-9.23,2.83,50.27,50.27,0,0,0,.22,9.33,31,31,0,0,0,8.38,2.67s4.33-3.77,5.47-7.11A19.16,19.16,0,0,0,160.28,288.83Z" style="fill:#455a64"></path><path d="M144.78,287.88l-.69-1.28a1.88,1.88,0,0,1-.12.18.76.76,0,0,1-.11.14l.65,1.21L151,291.8l.7.5a.62.62,0,0,1,.22-.28l-.73-.52Z" style="fill:#455a64"></path><path d="M157.75,278.64c-.53-.05-1.11-.1-1.75-.13a15.62,15.62,0,0,0-9.5,2.69l-1.28.78a1.43,1.43,0,0,1,.14.34l1.35-.83a15.14,15.14,0,0,1,9.27-2.62c.82,0,1.54.1,2.18.18A1.15,1.15,0,0,1,157.75,278.64Z" style="fill:#455a64"></path><path d="M162.34,281.58l-.28,1-1.95,6.17-.46,1.31a1.89,1.89,0,0,1,.34.09l.46-1.29,2-6.17.29-1A2,2,0,0,1,162.34,281.58Z" style="fill:#455a64"></path><path d="M173.82,296.54a5,5,0,0,1-.72.56,71.78,71.78,0,0,0-8-.73H165a3.93,3.93,0,0,0-.48.06,2.17,2.17,0,0,1,0,.36,2.88,2.88,0,0,1,.59-.06,69,69,0,0,1,8,.74h.06l.06,0a5.35,5.35,0,0,0,.69-.53C173.89,296.79,173.85,296.67,173.82,296.54Z" style="fill:#455a64"></path><path d="M170.19,283.8c1.44,1.32,4.14,3.78,5.3,7.26a4.44,4.44,0,0,1,.2.84,2,2,0,0,1,.34-.14,5.42,5.42,0,0,0-.2-.82c-1.19-3.56-3.93-6.06-5.4-7.4l-.45-.42c-.31-.29-.61-.53-.89-.75a.65.65,0,0,1-.08.17.5.5,0,0,1-.13.12,10.21,10.21,0,0,1,.85.72C169.86,283.51,170,283.65,170.19,283.8Z" style="fill:#455a64"></path><path d="M159.84,303.66c0-.14.17-.62.39-1.26a1.27,1.27,0,0,1-.43.14c-.2.6-.31,1-.32,1.08v.05l2.47,8.53.05,0c.06,0,.81.55,1.67,1.08l.08,0,.38-.1c-.69-.42-1.39-.88-1.88-1.21Z" style="fill:#455a64"></path><path d="M175.85,304.45c-.16.44-.33.88-.54,1.34a22.43,22.43,0,0,1-5.45,7.13c-.33.19-.89.48-1.49.76a1.2,1.2,0,0,1,.29.26c.68-.32,1.26-.64,1.4-.72a23.06,23.06,0,0,0,5.58-7.28c.19-.43.35-.84.51-1.25A1.76,1.76,0,0,1,175.85,304.45Z" style="fill:#455a64"></path><path d="M152.25,300.2c-.32.18-.68.39-1.08.64a52.17,52.17,0,0,0-6.72,5.64l0,0c-.08.15-.36.67-.67,1.34l.26.32c.26-.59.52-1.11.71-1.46a50.92,50.92,0,0,1,6.64-5.58c.44-.28.83-.5,1.18-.69A2.26,2.26,0,0,1,152.25,300.2Z" style="fill:#455a64"></path><path d="M157.73,317.3c-.61,0-1.29,0-2.06-.07a16.52,16.52,0,0,1-8.58-2.93l0,0h0a10,10,0,0,1-1.12-.31c0,.13,0,.25,0,.37a9.23,9.23,0,0,0,1,.28,16.77,16.77,0,0,0,8.74,3l1.93.07A1.25,1.25,0,0,1,157.73,317.3Z" style="fill:#455a64"></path><path d="M137.81,303.83a.74.74,0,0,1,.36,0c-.11-.4-.21-.81-.28-1.22a35.12,35.12,0,0,1,.23-9.11,15.79,15.79,0,0,1,.36-1.64,1,1,0,0,1-.25,0h-.12c-.14.5-.25,1-.35,1.56a36,36,0,0,0-.23,9.22A11.64,11.64,0,0,0,137.81,303.83Z" style="fill:#455a64"></path><path d="M156,278.69a18.08,18.08,0,0,1,6.24,4,21.94,21.94,0,0,1,7.62.6,14.1,14.1,0,0,0-.46-2.24,23.07,23.07,0,0,0-11.55-3.9A16.16,16.16,0,0,0,156,278.69Z" style="fill:#455a64"></path><path d="M178.76,294a17.93,17.93,0,0,0-3.1-3,32,32,0,0,1-2.52,6.29,59.94,59.94,0,0,1,2.33,8.58,21.77,21.77,0,0,0,3.68-1.19,23.11,23.11,0,0,0-.39-10.68Z" style="fill:#455a64"></path><path d="M141.53,316.12s3.71-.42,5.45-1.68c0,0-1.24-3.47-2.4-7.83a44.52,44.52,0,0,1-6.87-4s-1.41,1.54-1.63,6.32A23.32,23.32,0,0,0,141.53,316.12Z" style="fill:#455a64"></path><path d="M136,289.48a9.3,9.3,0,0,0,1.93,4,16,16,0,0,1,6.7-5.43,47.54,47.54,0,0,1,2-6.66,20.91,20.91,0,0,0-3.43-.05A23.3,23.3,0,0,0,136,289.48Z" style="fill:#455a64"></path><path d="M169.94,313.08a33.79,33.79,0,0,1-7.85-1,40.89,40.89,0,0,1-6.43,5.32s1.73,3.31,3.78,4.49a25.71,25.71,0,0,0,8.46-2.65A17.42,17.42,0,0,0,169.94,313.08Z" style="fill:#455a64"></path><path d="M176.65,311.44c-3.73,5.58-18.54,9.38-28.33-2.72s-4.64-26.39,2.17-30.86a23.1,23.1,0,1,0,26.16,33.58Z" style="opacity:0.1"></path></g><path d="M178.76,294c2.1.63,3.41,2.75,3.32,7.57s-2.86,7.85-4.84,7.23S175.43,294.12,178.76,294Z" style="fill:#9e6767"></path><g id="freepik--Arm--inject-2"><path d="M104.29,265.93c-7.38,2.29-10,8-8.64,18.21,1.15,8.76,5,29.62,6.22,32.66s1.79,5.52,10.61,6.24c8.66.7,21.75,0,32-2.84,5.43-1.5,8.8-3.22,10.83-5.65,4.88-5.86,3.2-14.68-1.75-11.71-3.93,2.35-6,3.13-7.38,3.17,0,0,1.4-4.77,0-5.85s-2.9,2.55-4.89,5.35c-1.27,1.79-1.91,3.78-3.15,4.11-7.62,1.74-22-.59-22-.59l-4.37-21.31S110.29,269.5,104.29,265.93Z" style="fill:#9e6767"></path><path d="M105.09,264.82c-5.44,1.2-10.68,6-10.75,11.68-.1,7.74,2.81,23.37,2.81,23.37s11,1.92,16.41-3.52l-2.68-19.65C107.85,267,105.09,264.82,105.09,264.82Z" style="fill:#fafafa"></path></g></g><g id="freepik--Signs--inject-2"><g id="freepik--smiley-face--inject-2"><path d="M81.44,221.76A10,10,0,1,0,84,207.83,10,10,0,0,0,81.44,221.76Z" style="fill:#6B3598"></path><path d="M95.77,217.74a.58.58,0,0,1-.62,0,4.1,4.1,0,0,0-3.93.53l0,0a4,4,0,0,0-1.91,3.47.59.59,0,0,1-.5.66.58.58,0,0,1-.66-.5,5.15,5.15,0,0,1,2.41-4.59l0,0a5.16,5.16,0,0,1,5.16-.59.59.59,0,0,1,.22.8A.55.55,0,0,1,95.77,217.74Z" style="fill:#455a64"></path><path d="M90.92,212.37a1.12,1.12,0,1,0,.19-1.68A1.2,1.2,0,0,0,90.92,212.37Z" style="fill:#455a64"></path><path d="M84.07,217.21a1.12,1.12,0,1,0,.19-1.67A1.2,1.2,0,0,0,84.07,217.21Z" style="fill:#455a64"></path></g><polygon points="65.06 244.32 77.89 249.47 80.33 245.77 85.92 251.2 87.7 247.72 95.54 252.83 86.57 240.79 84.72 244.73 78.67 236.75 75.47 242.01 69.53 235.04 65.06 244.32" style="fill:#6B3598"></polygon><polygon points="87.92 261.97 88.55 257.25 97.81 255.86 85.1 253.23 84.33 257 74.51 255.05 75.12 262.85 87.92 261.97" style="fill:#6B3598"></polygon><g style="opacity:0.30000000000000004"><polygon points="65.06 244.32 77.89 249.47 80.33 245.77 85.92 251.2 87.7 247.72 95.54 252.83 86.57 240.79 84.72 244.73 78.67 236.75 75.47 242.01 69.53 235.04 65.06 244.32"></polygon><polygon points="87.92 261.97 88.55 257.25 97.81 255.86 85.1 253.23 84.33 257 74.51 255.05 75.12 262.85 87.92 261.97"></polygon></g><g id="freepik--question-marks--inject-2"><path d="M109.21,181.81a12.54,12.54,0,0,1,3.49-.46,9.39,9.39,0,0,1,3.3.6,7.34,7.34,0,0,1,2.69,1.74,7.4,7.4,0,0,1,1.92,5.64,7.71,7.71,0,0,1-.63,2.27,12.35,12.35,0,0,1-1.11,2l-1.22,1.81a10.36,10.36,0,0,0-.94,1.71,3.1,3.1,0,0,0-.26,1.7,1.5,1.5,0,0,1-.13.79.9.9,0,0,1-.58.48l-2.79.78a1,1,0,0,1-.8-.09.82.82,0,0,1-.47-.62,6.65,6.65,0,0,1-.11-2.68,9.46,9.46,0,0,1,.74-2.31,13.87,13.87,0,0,1,1.18-2c.44-.62.85-1.22,1.22-1.79a8.77,8.77,0,0,0,.85-1.62,2.37,2.37,0,0,0,.08-1.55,2.89,2.89,0,0,0-1.82-2,5.21,5.21,0,0,0-3.37,0,5,5,0,0,0-3.72,4.41,2.14,2.14,0,0,1-.21.72,1,1,0,0,1-.63.39l-3,.84a.86.86,0,0,1-.63-.06.79.79,0,0,1-.4-.52,5.87,5.87,0,0,1,0-2.85,9.25,9.25,0,0,1,1.33-3,11.33,11.33,0,0,1,2.48-2.62A10,10,0,0,1,109.21,181.81Zm7.33,20.45a1,1,0,0,1,.78.1,1,1,0,0,1,.49.61l.91,3.24a1,1,0,0,1-.1.78,1,1,0,0,1-.61.49l-3.16.88a1,1,0,0,1-1.27-.71l-.91-3.23a1,1,0,0,1,.1-.78,1,1,0,0,1,.61-.49Z" style="fill:#6B3598"></path><path d="M141,192.7a8.45,8.45,0,0,1,2.06,1.3,6.54,6.54,0,0,1,1.49,1.77,5.25,5.25,0,0,1,.65,2.11,4.59,4.59,0,0,1-.43,2.31,4.41,4.41,0,0,1-1.05,1.53,5,5,0,0,1-1.34.93,8.91,8.91,0,0,1-1.48.58l-1.44.42a7.18,7.18,0,0,0-1.26.49,2.13,2.13,0,0,0-.89.78.91.91,0,0,1-.42.36.59.59,0,0,1-.52,0l-1.82-.82a.7.7,0,0,1-.39-.4.57.57,0,0,1,0-.54,4.48,4.48,0,0,1,1.13-1.46,6.71,6.71,0,0,1,1.41-.9,9.91,9.91,0,0,1,1.52-.55c.51-.13,1-.27,1.44-.41a5.71,5.71,0,0,0,1.17-.48,1.74,1.74,0,0,0,.73-.79,2,2,0,0,0-.1-1.84,3.57,3.57,0,0,0-1.78-1.51,3.45,3.45,0,0,0-3.92.7,1.48,1.48,0,0,1-.43.28.63.63,0,0,1-.5-.07l-2-.87a.59.59,0,0,1-.31-.31.55.55,0,0,1,0-.45,4,4,0,0,1,1.29-1.49,6.2,6.2,0,0,1,2-1,7.62,7.62,0,0,1,2.47-.3A6.87,6.87,0,0,1,141,192.7Zm-5.15,14.08a.73.73,0,0,1,.37.4.68.68,0,0,1,0,.54l-.95,2.11a.65.65,0,0,1-.39.37.67.67,0,0,1-.54,0l-2.07-.93a.65.65,0,0,1-.37-.39.67.67,0,0,1,0-.54l1-2.12a.67.67,0,0,1,.4-.37.68.68,0,0,1,.54,0Z" style="fill:#6B3598"></path><g style="opacity:0.2"><path d="M141,192.7a8.45,8.45,0,0,1,2.06,1.3,6.54,6.54,0,0,1,1.49,1.77,5.25,5.25,0,0,1,.65,2.11,4.59,4.59,0,0,1-.43,2.31,4.41,4.41,0,0,1-1.05,1.53,5,5,0,0,1-1.34.93,8.91,8.91,0,0,1-1.48.58l-1.44.42a7.18,7.18,0,0,0-1.26.49,2.13,2.13,0,0,0-.89.78.91.91,0,0,1-.42.36.59.59,0,0,1-.52,0l-1.82-.82a.7.7,0,0,1-.39-.4.57.57,0,0,1,0-.54,4.48,4.48,0,0,1,1.13-1.46,6.71,6.71,0,0,1,1.41-.9,9.91,9.91,0,0,1,1.52-.55c.51-.13,1-.27,1.44-.41a5.71,5.71,0,0,0,1.17-.48,1.74,1.74,0,0,0,.73-.79,2,2,0,0,0-.1-1.84,3.57,3.57,0,0,0-1.78-1.51,3.45,3.45,0,0,0-3.92.7,1.48,1.48,0,0,1-.43.28.63.63,0,0,1-.5-.07l-2-.87a.59.59,0,0,1-.31-.31.55.55,0,0,1,0-.45,4,4,0,0,1,1.29-1.49,6.2,6.2,0,0,1,2-1,7.62,7.62,0,0,1,2.47-.3A6.87,6.87,0,0,1,141,192.7Zm-5.15,14.08a.73.73,0,0,1,.37.4.68.68,0,0,1,0,.54l-.95,2.11a.65.65,0,0,1-.39.37.67.67,0,0,1-.54,0l-2.07-.93a.65.65,0,0,1-.37-.39.67.67,0,0,1,0-.54l1-2.12a.67.67,0,0,1,.4-.37.68.68,0,0,1,.54,0Z"></path></g></g></g></g></g><g id="freepik--character-3--inject-2"><g id="freepik--character--inject-2"><g id="freepik--bottom--inject-2"><path d="M459.69,324.07l-.13-2,.08-12.65L444.9,312.3l1.93,11.37.65,2.62s.33,5.12,5.9,4.38S460.24,326.94,459.69,324.07Z" style="fill:#ffc4c3"></path><path d="M459.56,322.11c2.46-.06,2.2,7.84,2.87,13.1.73,5.65,2.91,9.71,3.57,14.34.75,5.29.22,7.53-1.95,12-1.69,3.46-10.27,8.45-13.58,3.72S446.4,355,446.74,349.7a82.43,82.43,0,0,0-.2-13.37c-.38-4.46-1.56-12.35.29-12.66l.65,2.62c1.16,1.94,10.95,1.63,12.21-2.22Z" style="fill:#37474f"></path><path d="M415.61,319.22l.22-2.28.93-13.36-15,.2,1.34,13.16,0,2.76a4.31,4.31,0,0,0,3.63,4.52C410.74,325.2,415.74,322.71,415.61,319.22Z" style="fill:#ffc4c3"></path><path d="M418.48,329.33c.62,2.65-.14,9.9-.14,9.9s-1.18,2.49-5.28,4.1l-1.71-10.11Z" style="fill:#263238"></path><polygon points="413.06 343.33 404.1 340.27 402.02 332.26 412.01 337.14 413.06 343.33"></polygon><path d="M403.09,319.7l0-2.76c-1.23.58-2.55,11.44-9.09,18.33-4.82,5.09-10.3,8.07-12.47,10.73-2.91,3.55,3.89,9.54,12.83,7.74,4.44-.89,11.18-3.64,13-6.61s3.13-7.81,4.64-10,5.68-3.84,6.67-6.26c1.09-2.67.23-6.29-.5-8.78-.67-2.28-1.31-5.11-2.35-5.16l-.22,2.28c-.61,1.21-2.76,2.44-7.27,2.63C406.2,321.94,404.05,321.66,403.09,319.7Z" style="fill:#37474f"></path><path d="M399.31,163.47s6.3,6.54,25.56,5.24S449,157.46,449,157.46a54.94,54.94,0,0,1,6.33,21.39c.78,8.26.09,25.66.09,48.66,0,19.65-.19,25.67-.19,25.67a108.69,108.69,0,0,1,3.86,16.4c1.34,10.81,1.32,31.39.76,46.75-3.68,4.21-12,2-14.91,1.32C441,304.45,433.48,271,432.08,264c-1.91-9.53-3.74-18.92-7.49-40.9l-4.06,36.22a81.86,81.86,0,0,1,.59,10.68c0,6.07-3,29.1-4.65,40.16-2.89,2.21-11.14,2.41-14.45,0-1-7.69-3.21-35.35-4.16-48.17a452.18,452.18,0,0,1-1.71-55.31C396.84,177.43,399.31,163.47,399.31,163.47Z" style="fill:#455a64"></path><path d="M424.59,223.13l-4.06-26.55s-11.18-2.47-16.25-11c0,0,1.18,8.88,12.18,13.52l4.45,25-.38,35.21Z" style="fill:#37474f"></path></g><g id="freepik--top--inject-2"><path d="M406.48,50.18a7.84,7.84,0,0,0-7.92,2.12c-3.46,3.44-5.42,11.11-2.75,18.14S401.3,83.28,398.36,85a3.16,3.16,0,0,1-4.86-1.42s-1.39,2.88.48,5.2c2.06,2.57,5.73,1.48,5.73,1.48s-12,14.65.49,31.17c6.45,8.51,38.28,13,51.62,2.75,12.82-9.87,6-22.93-.36-30.64-7.18-8.72-3.29-17.49-3-22.11.45-8.46-1.86-14.25-7.94-15.32A12.62,12.62,0,0,0,431.9,45.7C423.89,42.93,411.5,43.79,406.48,50.18Z" style="fill:#f0997a"></path><path d="M356.23,159.66c1.82-.37,27.9-17.86,27.9-17.86s10.55-26.36,13-31.73c4.11-8.85,10.3-10.49,15.78-10.51.31.8.25,14.5.25,14.5l-2.31,7.72c-4.56,10-9.74,23.85-15.2,30.62-7.78,5.82-30.33,18-34.11,18" style="fill:#ffc4c3"></path><path d="M362,170.33c-7.95,1.35-11.69-2.05-14.22-8.75s-4.2-15.79-4.78-18.17-.05-3.35.88-3.69c.35-.13,2-.05,2.65,2.48,1.27,4.61,2,7.46,2.87,7.24s0-3.65-1-8.36c-.7-3.17-1.16-5.87.62-6.24s2.75,1.41,3.73,5.7,1.51,7.49,2.69,7.34c.93-.12-.2-4.65-.6-7.64s-.76-4.74,1.09-5.08c1.67-.31,2.61,2,3.14,4.88.49,2.69,2.23,10.84,2.74,11.79.86,1.6,1.76-3,2.7-4.94,1.53-3.26,4.38-2.5,3.86.29a51.88,51.88,0,0,0-.86,10.32C367.54,160.78,367.87,169.14,362,170.33Z" style="fill:#ffc4c3"></path><path d="M358.65,156.18s-4.33,5.52-2,10.72a7.14,7.14,0,0,1-1.59-7.12A5.48,5.48,0,0,1,358.65,156.18Z" style="fill:#ffa8a7"></path><path d="M367.57,152.94c.16,1.67.21,3.3.28,4.94a26.24,26.24,0,0,1-.06,5,11.91,11.91,0,0,1-1.61,4.83,6.14,6.14,0,0,1-1.84,1.82,5.78,5.78,0,0,1-2.39.79,6.31,6.31,0,0,0,3.56-3,13.58,13.58,0,0,0,1.28-4.56,41.06,41.06,0,0,0,.28-4.86C367.14,156.24,367.34,154.58,367.57,152.94Z" style="fill:#ffa8a7"></path><path d="M420.4,99s20.44.12,25.63,2.18c2.38.94,5.49,4.69,3.45,18.46-1.33,9-4.06,27.9-4.06,27.9,4.1,8.62,8.26,16,10,27.7,0,0-7.23,7.9-31.49,7-21.31-.79-26.51-6-26.51-6L401,150.15s.47-8.74.33-14.08c0,0-5.1-4.24-5.38-10.07-.3-6.11,1.29-8.35,6.53-15.44a61.4,61.4,0,0,1,10.49-11Z" style="fill:#6B3598"></path><path d="M437.93,128.65a12.88,12.88,0,0,1-11.57,7.86,13.56,13.56,0,0,1-12.13-6.17s1.19,9.4,12.34,8.43S437.93,128.65,437.93,128.65Z" style="opacity:0.2"></path><path d="M405.33,58.87c-1.53,2.57-3.65,5.59-2.95,19,.65,12.27,3.2,15.05,6.61,16.36,2,.78,5.6.49,9.37,0l0,6s-8.9,8-.23,8.51c12.45.69,15.7-7.69,15.7-7.69L434,85.33s2.79,1.28,6.07-1.53c3.6-3.08,3.38-7.58,1.4-10-2.2-2.64-6.69-1.37-8.5,2.06-2.93.85-4.06-3.06-3.33-7.54a7.76,7.76,0,0,1-4.94-8.42C419.72,63.41,408.44,64.05,405.33,58.87Z" style="fill:#ffc4c3"></path><path d="M414.48,87.08l4.76-1.42a2.44,2.44,0,0,0-3-1.76A2.6,2.6,0,0,0,414.48,87.08Z" style="fill:#b16668"></path><path d="M419.24,85.66a2.51,2.51,0,0,0-1.14-1.52,2.7,2.7,0,0,0-2.05,2.47Z" style="fill:#f28f8f"></path><path d="M409.32,69.28l-3.85-1.88a2.06,2.06,0,0,0,.91,2.85A2.26,2.26,0,0,0,409.32,69.28Z" style="fill:#b16668"></path><path d="M416.83,68.26,421,66.92a2.08,2.08,0,0,1-1.31,2.72A2.27,2.27,0,0,1,416.83,68.26Z" style="fill:#b16668"></path><polygon points="413.54 71.22 412.93 81.64 407.93 79.67 413.54 71.22" style="fill:#ffa8a7"></polygon><path d="M418.36,94.21c4-.4,12.18-3.91,13.54-7.08,0,0-.46,3.56-3.13,5.32-3.73,2.48-10.42,4.17-10.42,4.17Z" style="fill:#ffa8a7"></path><path d="M408,74.11a1.83,1.83,0,0,1-1.54,2,1.71,1.71,0,0,1-2-1.47,1.83,1.83,0,0,1,1.53-2A1.71,1.71,0,0,1,408,74.11Z" style="fill:#263238"></path><path d="M421,74.11a1.83,1.83,0,0,1-1.54,2,1.72,1.72,0,0,1-2-1.47,1.84,1.84,0,0,1,1.54-2A1.72,1.72,0,0,1,421,74.11Z" style="fill:#263238"></path><path d="M457.52,187.12c2.88.74,6.43-3,7.39-4.22s-.41-4.2-1.08-6.67-.17-6.72-3.23-5.45S451.37,180.57,457.52,187.12Z" style="fill:#ffa8a7"></path><path d="M444.9,100.82c7.9.87,9.68.29,14.79,10.61s13.74,26.92,15.67,30.79,3.78,6.7-.94,12.9c-4.21,5.53-16.66,21.45-18.5,23.73-1.64,2,.43,7.77,6.22,6.76,0,0-4.31,4.07-6.76,3.7-2.11-.31-5.46-2.07-8.67-8.39-2-4-.53-7.22,2.25-11.81,3.31-5.47,12.53-21,12.53-21L444.9,122.29S438.34,108.13,444.9,100.82Z" style="fill:#ffc4c3"></path><path d="M461.49,148.08c1.3-1.87,4.79-3.37,6-3a8.37,8.37,0,0,0-7,1.47Z" style="fill:#ffa8a7"></path></g></g></g><g id="freepik--characters-2--inject-2"><g id="freepik--Characters--inject-2"><path id="freepik--arm--inject-2" d="M240.78,151.78c8.1-3.7,12.33,2.41,16.18,7.43,3.68,4.79,16.67,23.22,16.67,23.22s23.64-21.47,31.11-24,10.7-.58,11.92,1.85-4.19,6.06-11,14.2-22.78,22.34-26.27,25.05c-5.12,4-8.71,3.62-13.24.15s-20.78-23.45-20.78-23.45Z" style="fill:#f28f8f"></path><g id="freepik--character--inject-2"><g id="freepik--arm--inject-2"><path d="M312.41,159.53c-1.06,0-4.55,7.43-5.17,11.11-1.59,9.47-3,16.46-3.29,22.71-.14,3.5.12,6.42,2,8.67,5.69,6.9,15.92,12.89,26.11,16.86,5.4,2.1,9.23,2.76,12.41,2,7.62-1.82,11.53-9.76,5.64-10.36-4.7-.48-7.12-.93-8.3-1.76.94-.53,3.22-.66,4.56-1.48a1.71,1.71,0,0,0,.72-2.11c-2,0-4.32-.25-8.19,0-2.25.12-4.34,1.6-5.57,1.11-7.34-3.26-14.9-12.64-14.9-12.64l3.76-20.8S319.3,163.15,312.41,159.53Z" style="fill:#ffa8a7"></path></g><g id="freepik--bottom--inject-2"><path d="M326.63,211a156.71,156.71,0,0,1,15.45,7.75c9.93,5.74,13.62,5.65,12.87,21.18-.66,13.56-2.47,30.91-2,38.61-3.78,3.95-11.4,8.13-12.93,1l-.28-1a10.88,10.88,0,0,0,.57-2.28l0-1c.28-6.79-2.57-26.16-2.43-34.33l-29.45-15.1Z" style="fill:#ffa8a7"></path><path d="M364.46,297.48a2.85,2.85,0,0,1-.86,2.26c-.83.66-3.57,2.55-9.66.94-5.85-1.54-8.68-5.14-9.54-7s-1.62-3.65-2.54-5.19a10.3,10.3,0,0,0-3.56-3.12c-.72-.46-.93-1.42-.83-2.78C338.19,281.1,364.46,297.48,364.46,297.48Z" style="fill:#263238"></path><path d="M340.29,271.76l0,1.44a3.18,3.18,0,0,0,1,2.06c1,1,2,1.94,3,2.91a.45.45,0,0,0,.31.16c.21,0,.26-.31.23-.53a11.72,11.72,0,0,1-.24-1.85c.07-2.17,3.31-2.66,5-2.6,1.51.06,3.47.72,3.79,2.42.58,3,3.63,9,4.81,10.72a34.52,34.52,0,0,0,3.18,4.06c1.25,1.38,4.16,3.75,3.29,6s-3.07,3.38-6.15,3.21a18,18,0,0,1-11.11-4.87c-2.33-2.38-3.94-6.35-4.74-7.57-1.45-2.24-4.33-3.28-5.08-4.42a7.81,7.81,0,0,1,.52-5.44,31.88,31.88,0,0,0,1.41-3.61C339.8,272.83,339.53,271.67,340.29,271.76Z" style="fill:#37474f"></path><path d="M356.83,289.36a8.23,8.23,0,0,1,4,.62s1.21,1,1.83,1.4c2,1.38,3,3.08,2.14,5.34s-3.05,3.33-6.13,3.17c-2.82-.15-7.6-1.25-10.48-4.26C349.22,292.4,352.52,289.73,356.83,289.36Z" style="fill:#f0f0f0"></path><path d="M336.88,241.54l-22-7.59-14.42-17.57,22.47-8s17.6,8.5,24.4,12.53,8.62,5.25,8.22,16.12c-.31,8.48-2.45,31.78-2.45,31.78s-3.85,2.06-13.06-.62c0,0-2.16-13.62-2.79-19.07C336.88,246.1,336.88,241.54,336.88,241.54Z" style="fill:#37474f"></path><path d="M341.79,268.68c-1.09-7.68-2.89-22.24-2-28.17.58-3.65-3.84-5.09-8.1-8.18S321.15,225,321.15,225s2.62-4.68,1.36-8l-11.78,10.55,6,7.1h0l20.16,6.95s0,4.56.35,7.59c.63,5.45,2.79,19.07,2.79,19.07Q340.94,268.47,341.79,268.68Z" style="fill:#263238"></path><path d="M339.43,268.12s1.75,1.79,7.51,2,6.38-1,6.38-1l.43-4.76a18.64,18.64,0,0,1-7.15,1.06,17.7,17.7,0,0,1-7.58-1.89Z" style="fill:#455a64"></path><path d="M305.51,219.63s11.38,5.92,19.06,10.69c7.44,4.61,11.87,6.48,9.45,20s-5,30.15-4.81,37.85c-3.93,3.8-11.71,7.69-13,.47l-.25-1a10,10,0,0,0,.66-2.26l0-1c.54-6.78-.79-25.81-.33-34l-29.61-16.67Z" style="fill:#ffa8a7"></path><path d="M315.73,250.44s-15.48-8-25.85-13.73c-12-6.6-13.42-15.57-13.77-28l46.77.08c1,8.1-1.27,13-5.94,15.86l10.56,7c5.64,4.25,7.86,5.49,7.24,14s-5,33.5-5,33.5c-4.07.93-9.23.82-12.91-1C316.38,269.2,314.23,257.1,315.73,250.44Z" style="fill:#37474f"></path><path d="M316.62,278.42s1.47,1.54,7.23,1.71,6.37-1,6.37-1l.44-4.76a18.6,18.6,0,0,1-7.15,1,14.87,14.87,0,0,1-7.2-1.88Z" style="fill:#455a64"></path><path d="M340,307.55a2.83,2.83,0,0,1-.94,2.22c-.86.63-3.67,2.42-9.69.57-5.79-1.77-8.48-5.48-9.27-7.36s-1.48-3.71-2.33-5.3a10.36,10.36,0,0,0-3.44-3.25,3.67,3.67,0,0,1-.72-2.81C314.35,290.16,340,307.55,340,307.55Z" style="fill:#263238"></path><path d="M316.8,280.91l0,1.44a3.21,3.21,0,0,0,.88,2.09c.94,1,1.93,2,2.89,3a.39.39,0,0,0,.3.17c.21,0,.27-.3.25-.52a11.7,11.7,0,0,1-.17-1.86c.16-2.17,3.42-2.53,5.09-2.4s3.45.85,3.71,2.56c.45,3,3.27,9.13,4.39,10.9a34.62,34.62,0,0,0,3,4.18c1.2,1.43,4,3.91,3.06,6.12s-3.2,3.26-6.27,3A18,18,0,0,1,323,304.29c-2.24-2.46-3.7-6.49-4.45-7.74-1.36-2.29-4.2-3.45-4.9-4.61a7.79,7.79,0,0,1,.73-5.42,34.54,34.54,0,0,0,1.55-3.55C316.28,282,316.05,280.79,316.8,280.91Z" style="fill:#37474f"></path><path d="M332.65,299.14a8.27,8.27,0,0,1,4,.77s1.16,1,1.77,1.47c1.93,1.45,2.89,3.2,1.93,5.42s-3.17,3.21-6.24,2.93c-2.82-.26-7.56-1.54-10.32-4.67C324.93,301.88,328.34,299.34,332.65,299.14Z" style="fill:#f0f0f0"></path></g><g id="freepik--top--inject-2"><path d="M312.41,159.53c5.53-.32,8.54,2.84,9.64,5s2.32,6.27-.49,23L310,180.92Z" style="fill:#fafafa"></path><g id="freepik--chest--inject-2"><path d="M284.22,161.71c-2.87,2-8,19-6.54,54,10.56,7.31,42.63,4.66,45.23-7.31,0,0-.83-9.58-.93-16.2.36-6.26.4-10.94.3-17.44-.1-7.18-3.36-14-9.87-15.22-5.39-1-13.75,0-13.75,0S289.43,160.18,284.22,161.71Z" style="fill:#6B3598"></path><path d="M310.3,153.82c1.12-3.84,5.36-7,7.23-13.07,2.56-8.23,3.57-18-5.6-21.13-.69-3-6-6.1-10.29-6.39a23.36,23.36,0,0,0-9,1.23,29.11,29.11,0,0,1-10.05,1.69,7.09,7.09,0,0,0-4,.62,3.83,3.83,0,0,0-1.6,3.53,6.39,6.39,0,0,0,1.68,3.63,3.32,3.32,0,0,0,.57,6.4,4,4,0,0,0,1.28,4.34,7.06,7.06,0,0,0,4.5,1.48s1.18,3.12,1.34,3.4a13,13,0,0,0,5.44,5.19,17.74,17.74,0,0,0,4.1,1.11,13.14,13.14,0,0,1,2.42.68,7.94,7.94,0,0,1,1.4,1.2l8.08,6.79C308.42,155,309.65,153.85,310.3,153.82Z" style="fill:#f0997a"></path><path d="M309.78,141.88l.21.16c1.15.63,1-1.28,2-2.61a2.86,2.86,0,0,1,2.29-1.08,3.65,3.65,0,0,1,3.55,1.89,5.35,5.35,0,0,1-2.77,7.15,4.32,4.32,0,0,1-4.72-.64l-.07,12.78s3.79,6.73-3.89,7.35c-5.13.41-8.05-.67-11.35-4.48l-.29-4a18.21,18.21,0,0,1-5.68-.45,10.77,10.77,0,0,1-7.49-8c-.68-2.72,0-5.21-.18-8-.11-1.65-.4-4.26-.42-5.33,0-1.33.23-6.61,1.56-8.48,2.45,3.49,12.67,3.82,19.88.33a11.66,11.66,0,0,0,1.74,5.6c1.17,1.88,2.93,2.78,4.89,3.86a6.4,6.4,0,0,0,.26,3.1A2.08,2.08,0,0,0,309.78,141.88Z" style="fill:#ffa8a7"></path><path d="M300.63,136,297,133.74a2.25,2.25,0,0,0,.7,3A2.09,2.09,0,0,0,300.63,136Z" style="fill:#b16668"></path><path d="M299.52,140.34a1.76,1.76,0,1,1-1.74-1.77A1.76,1.76,0,0,1,299.52,140.34Z" style="fill:#263238"></path><path d="M287.22,140.35a1.75,1.75,0,0,1-1.77,1.74,1.76,1.76,0,1,1,1.77-1.74Z" style="fill:#263238"></path><path d="M286.44,133.75,282.78,136a2.06,2.06,0,0,0,2.9.75A2.25,2.25,0,0,0,286.44,133.75Z" style="fill:#b16668"></path><polygon points="291.12 139.79 290.78 146.61 286.28 145.35 291.12 139.79" style="fill:#f28f8f"></polygon><path d="M294.74,158.37s6-.89,10.27-3.82a10.49,10.49,0,0,0,3.54-5.19,13.07,13.07,0,0,1-2,5.28c-3.94,4.89-11.64,5.76-11.64,5.76Z" style="fill:#f28f8f"></path><path d="M294.08,152.62h0C294,152.69,294,152.78,294.08,152.62Z" style="fill:#b16668"></path><path d="M298.29,151.74Z" style="fill:#b16668"></path><path d="M297.18,150.88c0-.13-.1-.26-.22-.35a4.33,4.33,0,0,0-3.29-.79c-.45.07-1.18.18-.95.81,0,.08.13.19.23.17a6.05,6.05,0,0,1,2.93,0,5.74,5.74,0,0,0,1,.38.29.29,0,0,0,.32-.14A.13.13,0,0,0,297.18,150.88Z" style="fill:#b16668"></path></g><g id="freepik--arm--inject-2"><path d="M284.22,161.71c-10.51,1.58-14.14,5.5-16.16,14.81s-4.17,19.6-4.8,24.74c-.42,3.47-1.15,7.13.45,9.57,4.9,7.48,15.71,15.62,25.4,20.67,5.14,2.68,8.88,3.76,12.12,3.35,7.78-1,12-6.8,6.27-8.4-6-1.7-6.88-2.77-8.16-3.53-.15-.78,2.88-.09,5.2-.78,1.45-.44,1.92-1.83,1.48-2a38.08,38.08,0,0,0-8.42-1.26c-2.26-.11-4.68.86-5.84.25-6.95-4.05-13.44-14.19-13.44-14.19l4.62-21.83S286.23,168.59,284.22,161.71Z" style="fill:#ffa8a7"></path><path d="M284.22,161.71c-5.32.5-8.56,1.18-11.06,3.49-2.7,2.49-4.16,5.71-5.75,12.59s-3,14-3,14,5.33,5.67,16.5,4.08c0,0,4.57-21.21,4.55-21.42S286,166,284.22,161.71Z" style="fill:#fafafa"></path></g></g></g><g id="freepik--character--inject-2"><g id="freepik--Legs--inject-2"><path d="M295.75,319.52c.07-9.74,8.7-34.21,8.7-34.21l-17-12s-1.32,6.05-3,14.18-3.78,11.33-3.78,11.33-3.67,4-3.79,6.75,1.8,9.33,2.86,14.34,1.7,8.86,4.27,13.8,15,9.43,14.68,4.57C298.21,331.53,295.91,327.47,295.75,319.52Z" style="fill:#ffa8a7"></path><path d="M280.64,298.82c-1.05-.14-2.4,1.6-3.38,2.86s-3.25,2.1-3.11,5.5,3,6.14,3.14,10.78-.24,12.55,6.07,18.63,13.35,7.14,16.05,5.82a3.3,3.3,0,0,0,1.74-1.89,2.69,2.69,0,0,0-.25-2.17q-1-2.64-1.76-5.35a72.68,72.68,0,0,1-2.53-11.28c-.29-2.47-.21-4.73-.79-5.17a9.68,9.68,0,0,0-4.89-2c-2.61-.57-4.09-.6-4.51-.39s-.46,1.05-.56,1.62c-.13.77-.25,1.54-.38,2.31a1.27,1.27,0,0,1-.16.51.43.43,0,0,1-.45.21c-.19-.05-.29-.26-.36-.44-1-2.75-1.25-5.74-1.74-8.64a29.42,29.42,0,0,0-1.38-5.21c-.38-1.09-.95-2.63-1.2-3.62a2.12,2.12,0,0,1,.07-1.55Z" style="fill:#455a64"></path><path d="M310.29,322.41s4.48,13.77,7.23,18.91a57.51,57.51,0,0,0,10.7,14.73c1,1,3.25,2.73,4.07,3.51a1.65,1.65,0,0,1,.06,2.55c-1.69,1.94-9.52,3.08-14.24.18s-9.61-8.8-12.48-11.22c-1.44-1.21-2.79-2.37-3.79-3.22s-.86-1.29-.65-2.53l-.35-2c-.47-4.18-5.92-13.69-5.92-13.69Z" style="fill:#ffa8a7"></path><path d="M300.84,343.29c-.95.48-1.07,2.67-1.17,4.27s-1.48,3.57.56,6.29,5.92,3.39,8.7,7.11,6.92,10.47,15.56,11.9,15-1.68,16.53-4.3a3.42,3.42,0,0,0,.36-2.54c-.24-.89-.71-1.13-1.44-1.65-1.53-1.08-3-2.22-4.48-3.41A71,71,0,0,1,327,353.1c-1.64-1.87-2.85-3.78-3.58-3.81-2.35-.09-3.11.3-5.16,1.14-2.47,1-3.7,1.83-3.93,2.23s.21,1.13.45,1.65l1,2.13a1.17,1.17,0,0,1,.16.5.46.46,0,0,1-.26.44.63.63,0,0,1-.54-.17c-2.42-1.67-4.28-4-6.33-6.13a24.23,24.23,0,0,0-3.64-3.3c-.93-.69-2.13-1.42-3.06-2.12-.7-.51-.94-.72-1-1.08Z" style="fill:#455a64"></path><path d="M304.12,298.89c1.34-6.65,3.39-16.82,4.66-23.61,2-10.84,3.53-22.15,1.73-27.1-1.71-4.68-11.18-11-21.15-17.42s-27.71-16.62-27.71-16.62l-53.73,6.76c.94,9.33,1.31,13.89,5.72,22.32,4.27,8.16,10.43,13.45,22.6,20.25,10.91,6.09,23.87,12.68,26.73,14.23,3.63,2,7,3.51,8.55,9.29,1.46,5.51,3.37,15.12,9.92,26.73,7.49,13.29,14.18,25.11,14.18,25.11s12.59,1.76,19.69-8C315.31,330.85,309.94,315.35,304.12,298.89Z" style="fill:#6B3598"></path><path d="M304.12,298.89c1.34-6.65,3.39-16.82,4.66-23.61,2-10.84,3.53-22.15,1.73-27.1-1.71-4.68-11.18-11-21.15-17.42s-27.71-16.62-27.71-16.62l-53.73,6.76c.94,9.33,1.31,13.89,5.72,22.32,4.27,8.16,10.43,13.45,22.6,20.25,10.91,6.09,23.87,12.68,26.73,14.23,3.63,2,7,3.51,8.55,9.29,1.46,5.51,3.37,15.12,9.92,26.73,7.49,13.29,14.18,25.11,14.18,25.11s12.59,1.76,19.69-8C315.31,330.85,309.94,315.35,304.12,298.89Z" style="opacity:0.30000000000000004"></path><path d="M302.74,295c-5.48-15.43-11-30.69-12.59-34-3.37-6.95-33.12-26.84-34.06-27.47h0l1.46-2a20.17,20.17,0,0,0,3.13-7.85,21.77,21.77,0,0,1-1.54,9c4.56,3.17,16.19,11.26,20.84,14.69,5.84,4.32,12,9.51,14.48,16.76C296.25,269.49,300.61,286.53,302.74,295Z" style="opacity:0.15"></path><path d="M292.38,333.67l2.69,5.42s15.06,2.69,20.65-8.17l-1.93-5.35C311.11,331.72,299.73,335.45,292.38,333.67Z" style="fill:#6B3598"></path></g><g id="freepik--top--inject-2"><polygon points="200.14 238.52 209.18 176.04 211.49 181.1 204.27 236.17 200.14 238.52" style="fill:#263238"></polygon><g id="freepik--chest--inject-2"><path d="M221.45,153.68l-12.15,1c-2.49.91-2.25,19-2.56,36-.32,17.41,2,39.55,2,39.55s12.38,4.76,32.41-2c17.72-6,20.53-14,20.53-14l-4.77-7.94-.6-16s6.93-8.25,2.53-18.48-18-20-18-20l-6.47.47Z" style="fill:#fafafa"></path><path d="M220.43,192.45a14,14,0,0,0,12.49,5.8,13.87,13.87,0,0,0,11-7s-1.25,8.75-11.69,9.19S220.43,192.45,220.43,192.45Z" style="opacity:0.1"></path></g><path d="M200.05,239.75l.09-1.23.14.07,0-.08,4-2.34c.61,1.41,1.36,3.33,2.14,5.47,8.69,4.29,23.31,11.47,23.31,11.47l-2.5,31.21-29.43-14.77h0a2.51,2.51,0,0,1-1.27-1.33C195.14,265.05,199,245,200.05,239.75Z" style="fill:#37474f"></path><polygon points="200.14 238.52 229.72 253.1 233.7 250.76 204.27 236.17 200.14 238.52" style="fill:#455a64"></polygon><path d="M228.43,259.8s.21.71-2.55,1.36-14.36.89-15.94.08-5.95-5.38-8-8.49a41.89,41.89,0,0,1-3.24-5.95Z" style="opacity:0.2"></path><path d="M233.7,250.76c2.75,6.38,5.13,24.37,4.59,26.86s-2.59,3.94-4.59,5.12-6.16,3.7-7.75.06,3.77-29.69,3.77-29.69Z" style="fill:#263238"></path><path d="M229.72,253.11c0,.38-.33,5.12-1.29,6.69s-15.11,1.12-17.56.57-11.75-11.79-12.16-13.57,1.43-8.28,1.43-8.28Z" style="fill:#37474f"></path><path d="M211.27,258c0,.57-.48.78-1,.45a2,2,0,0,1-.87-1.64c0-.58.48-.78,1-.45A2,2,0,0,1,211.27,258Z" style="fill:#455a64"></path><path d="M237.35,152c4.78,8.91,10.81,24.22,8.32,46.05-2.39,21-15.95,55.05-15.95,55.05l4-2.35s12.46-32.88,14.63-52.44c2.63-23.83-4.76-40.47-8.17-46.49Z" style="fill:#37474f"></path><path d="M214.84,246.3c-2.37-1.88-3.49-3.87-6.13-5.48-1.28-.78-3.25-2.36-3.68-3.48-3.83-10.33-4.84-19.48-6.49-27.28,2.91-7.54,10.17-27.63,10.17-27.63,8.7-10.82,7-24.62,4.65-28.1,0,0-7.55-2.59-12.18.32-7.51,4.72-10.27,19-20.29,49.08a14.4,14.4,0,0,0,0,9.52c1.75,5.86,10.79,29.09,11.46,30.3,1,2.85,2.62,5.75,3.53,7.76,4.61,10.19,11.63,13.77,16.9,13.05,8.41-1.15,7.05-4.44,2.38-8.73-3.18-2.91-6-7.48-5.73-7.84a13.61,13.61,0,0,0,5,2.27c2.19.33,3.17-.62,3.43-1.34C218.13,248.15,216.69,247.76,214.84,246.3Z" style="fill:#ffa8a7"></path><g id="freepik--Head--inject-2"><path d="M244.49,110c2.71,1.59,7.17,8.47,5.74,22.69-1.24,12.39-5,14.67-7,15.53s-4.76.61-8.61.16l-.06,5c4.83,7.64,6.39,12.6,8.34,19.86-9.37-7.45-12.62-10.05-24.45-17l.09-16.79s-2.18,2.12-5.86-1.1c-3-2.66-4.08-7.15-1.71-9.56a5.31,5.31,0,0,1,8.44,1.68s-1.29-14.6,6.55-18.91S244,114.68,244.49,110Z" style="fill:#ffa8a7"></path><path d="M233.33,138.84c0-.05-.06-.13-.12-.14a.45.45,0,0,0-.23,0l-.14.07a1.86,1.86,0,0,0-.28.21,1.12,1.12,0,0,0-.22.26,1.63,1.63,0,0,0-.09.19l0,.07a.5.5,0,0,0,0,.21c0,.08.1.23.19.16a.32.32,0,0,0,.1-.1l0,0a.47.47,0,0,1,.06-.09l.06-.08,0,0,0,0a1.37,1.37,0,0,1,.29-.24l.14-.07a.38.38,0,0,0,.12-.09l0,0A.26.26,0,0,0,233.33,138.84Z" style="fill:#f28f8f"></path><path d="M237.83,141.94l-3.86-1.1a2,2,0,0,1,2.59-1.4A1.9,1.9,0,0,1,237.83,141.94Z" style="fill:#b16668"></path><path d="M236.24,141.49a2.13,2.13,0,0,0-1.51-1.77,1.62,1.62,0,0,0-.76,1.12Z" style="fill:#f28f8f"></path><path d="M247.15,128.91a1.65,1.65,0,1,1-1.78-1.59A1.71,1.71,0,0,1,247.15,128.91Z" style="fill:#263238"></path><path d="M233,128.91a1.65,1.65,0,1,1-1.77-1.59A1.69,1.69,0,0,1,233,128.91Z" style="fill:#263238"></path><path d="M234.6,148.37c-3.89-.51-11.9-2.81-13.15-6a8.18,8.18,0,0,0,2.81,4c2.4,2,10.31,4.31,10.31,4.31Z" style="fill:#f28f8f"></path><path d="M250.36,123.85s0,0,0,0a44.07,44.07,0,0,0-1.87-7.29.93.93,0,0,0,0-.13c-.24,8.87-11.89,8.12-11.89,8.12,2.34-5.76-.51-8.2-.51-8.2-3.14,7.48-9,8.68-9,8.68.14-5.34-2.1-8-2.1-8,.88,9.37-5.52,13.44-5.52,13.44A5.3,5.3,0,0,0,211,128.8c-2.37,2.41-1.34,6.9,1.7,9.56,3.7,3.21,5.86,1.11,5.86,1.11l0,10.23c-.37-4.14-13.05-12.27-13.82-26.81-.61-11.45,3.38-19.37,14.91-23.34,11.11-3.82,20.54,2.72,20.54,2.72,5.92-.24,11,3.67,12.7,10.32A13,13,0,0,1,250.36,123.85Z" style="fill:#e0e0e0"></path><path d="M231.35,123.91l3.54,2a1.94,1.94,0,0,0-.71-2.73A2.14,2.14,0,0,0,231.35,123.91Z" style="fill:#455a64"></path><path d="M246.47,124.4,243,126.5a1.94,1.94,0,0,1,.61-2.75A2.11,2.11,0,0,1,246.47,124.4Z" style="fill:#455a64"></path><polygon points="237.78 126.5 237.98 137.09 243.78 135.28 237.78 126.5" style="fill:#f28f8f"></polygon></g></g></g><g id="freepik--Sign--inject-2"><polygon points="169.76 140.49 183.18 141.49 184.36 137.33 191.16 140.72 191.78 136.96 200.56 139.4 188.69 130.87 188.13 135.07 180.16 129.46 178.74 135.28 171.17 130.56 169.76 140.49" style="fill:#6B3598"></polygon><polygon points="196.19 150.13 195.38 145.56 203.56 141.54 190.99 142.85 191.39 146.57 181.7 147.67 184.57 154.72 196.19 150.13" style="fill:#6B3598"></polygon><g style="opacity:0.30000000000000004"><polygon points="169.76 140.49 183.18 141.49 184.36 137.33 191.16 140.72 191.78 136.96 200.56 139.4 188.69 130.87 188.13 135.07 180.16 129.46 178.74 135.28 171.17 130.56 169.76 140.49"></polygon><polygon points="196.19 150.13 195.38 145.56 203.56 141.54 190.99 142.85 191.39 146.57 181.7 147.67 184.57 154.72 196.19 150.13"></polygon></g></g></g></g><g id="freepik--speech-bubbles--inject-2"><g id="freepik--speech-bubble--inject-2"><g id="freepik--speech-bubble--inject-2"><path d="M381.88,70.58a.68.68,0,0,0-.43-.08l-9.1,1.09V81.75l3.15,1.81,9.7-10a.73.73,0,0,0-.07-1.07C385,72.35,381.91,70.6,381.88,70.58Z" style="fill:#455a64"></path><path d="M375.5,83.56V73.4l9.09-1.09a.72.72,0,0,1,.61,1.22Z" style="fill:#37474f"></path><path d="M370.1,53.41l-31.46,18.2c-.62.36-1.13,1.23-1.13,2.91V113c0-.25.51.61,1.13,1l2.94,1.67a2.48,2.48,0,0,0,2.25,0l31.46-18.2a2.49,2.49,0,0,0,1.13-1.94V57a2.46,2.46,0,0,0-1.13-1.93l-2.94-1.67A2.48,2.48,0,0,0,370.1,53.41Z" style="fill:#455a64"></path><path d="M343.83,115.6a2.58,2.58,0,0,1-2.25,0l-2.94-1.68c-.62-.35-1.13-1.22-1.13-1V74.52a3.67,3.67,0,0,1,.36-2.11l5.17,3c-.21.34-.33.74-.33.13V114C342.71,115.61,343.17,116,343.83,115.6Z" style="fill:#263238"></path><path d="M375.29,56.35,343.83,74.56a2.45,2.45,0,0,0-1.12,1.94v24.16h0V115c0,.72.5,1,1.12.65l31.46-18.2a2.49,2.49,0,0,0,1.13-1.94V57C376.42,56.29,375.91,56,375.29,56.35Z" style="fill:#37474f"></path></g><path id="freepik--X--inject-2" d="M370,90.83l-7-5.32,7.32-14a2.66,2.66,0,1,0-4.71-2.47l-6.91,13.2-6.33-4.78a2.66,2.66,0,0,0-3.2,4.24l7,5.32-7,13.39a2.66,2.66,0,0,0,4.71,2.47l6.6-12.61,6.33,4.78a2.66,2.66,0,1,0,3.2-4.24Z" style="fill:#fafafa"></path></g><g id="freepik--speech-bubble--inject-2"><g id="freepik--speech-bubble--inject-2"><path d="M228.45,86.79,224,79.29l3.64-9.21V64.43l-9.79,5.65v5.65L222.09,83a.58.58,0,0,0,.28.26h0Z" style="fill:#263238"></path><path d="M224,79.29l4.2,7.28a.62.62,0,0,0,1.13-.11l4.44-12.82" style="fill:#37474f"></path><path d="M237.56,24.53,206.09,42.74c-.62.35-1.12,1.22-1.12,2.91V84.1c0-.25.51.62,1.13,1L209,86.74a2.53,2.53,0,0,0,2.26,0l31.46-18.2a2.49,2.49,0,0,0,1.12-2V28.13a2.42,2.42,0,0,0-1.13-1.93l-2.93-1.68A2.54,2.54,0,0,0,237.56,24.53Z" style="fill:#455a64"></path><path d="M211.29,86.73a2.56,2.56,0,0,1-2.26,0l-2.93-1.67c-.62-.35-1.13-1.22-1.13-1V45.65a3.73,3.73,0,0,1,.36-2.12l5.17,3c-.21.35-.34.75-.34.14V85.11C210.16,86.73,210.63,87.11,211.29,86.73Z" style="fill:#263238"></path><path d="M242.75,27.48l-31.46,18.2a2.5,2.5,0,0,0-1.13,2V71.79h0V86.08c0,.72.51,1,1.13.65l31.46-18.2a2.49,2.49,0,0,0,1.12-2V28.13C243.87,27.41,243.37,27.12,242.75,27.48Z" style="fill:#37474f"></path></g><path id="freepik--x--inject-2" d="M237.45,62l-7-5.32,7.32-14A2.66,2.66,0,0,0,233,40.19l-6.91,13.2-6.33-4.78a2.66,2.66,0,1,0-3.2,4.24l7,5.31-7,13.4A2.66,2.66,0,1,0,221.32,74l6.6-12.61,6.33,4.79a2.66,2.66,0,1,0,3.2-4.24Z" style="fill:#fafafa"></path></g></g></svg>